<?xml version="1.0" encoding="utf-8"?>
<!-- Generator: Adobe Illustrator 19.0.1, SVG Export Plug-In . SVG Version: 6.00 Build 0)  -->
<svg version="1.1" id="Слой_1" xmlns="http://www.w3.org/2000/svg" xmlns:xlink="http://www.w3.org/1999/xlink" x="0px" y="0px"
	 viewBox="-69 368 456.8 105.9" style="enable-background:new -69 368 456.8 105.9;" xml:space="preserve">
<style type="text/css">
	.st0{fill:#2482C5;}
	.st1{fill:#A1A09F;}
	.st2{enable-background:new    ;}
	.st3{fill:#FFFFFF;}
</style>
<path class="st0" d="M-9,420.4l24.5,13.7l-1.9,12.2h-33v21.4h-2H-39h-29.4c-0.2-2.2-0.2-4.4-0.2-6.7c0-5,0.4-9.9,1.1-14.7l2.5-11.5
	c1.9-6.5,4.4-12.7,7.6-18.6c-14-6.1-11.4-21.6-11.4-21.6l18.2,10.2c-8.4-8-14.3-18.5-16.5-30.4l8.4-1.5c1.5,7.9,4.9,15.2,9.8,21.2
	c-1.4-7.8-1.3-16.1,0.7-24.1l9.5-2c-3.7,10.7-3.4,22.1,0.4,32.3c0.6,1.7,1.3,3.3,2.1,4.9c6.3,3.8,13.7,6.2,21.5,6.7
	c6.6-4.5,12.1-10.6,15.8-18l7,5c-2.3,4.3-5.1,8.2-8.3,11.7c1.2-0.3,2.4-0.6,3.5-1c4.2-1.4,8.1-3.3,11.7-5.7l5.7,4.1l1.1,1.5
	c-4.8,3.4-10.1,6.2-15.8,8.1C1.2,419.2-3.8,420.1-9,420.4"/>
<path class="st0" d="M386.1,391.4c-3.6-4.2-7.7-5.5-13.2-5.5c-7.3,0-13.9,3.7-14,10.8c-0.1,8.3,6.6,10.2,14,10.9
	c4.8,0.4,7.2,1.8,7.1,4.7c0,2.5-2.9,4.2-7.1,4.2c-3.6,0-8.1-1.5-10.8-5l-4.7,4.9c3,5,9.3,7.3,15.5,7.3c7.6-0.1,14.9-3.5,14.9-11.4
	c0-8.2-6.6-10.9-13.6-11.5c-4.5-0.4-7.6-1-7.6-4.2c0-2.4,2.8-3.9,6.3-3.9c2.8,0,6.2,0.9,8.2,3L386.1,391.4z M352.5,387.2H343
	l-11.8,14.6v-14.6h-7.9v35.4h7.9v-15.1l13.1,15.1h9.5v-0.5l-15.6-17.7l14.3-17V387.2z M309.9,412.9c-2.1,2.1-5.9,3.4-8.7,3.4
	c-8.3,0-11.1-5.9-11.1-11c0-5.2,3.1-11.4,11.1-11.4c2.8,0,5.9,0.9,8,2.9l5-4.9c-3.6-3.6-8.1-5.5-13-5.5c-13,0-18.9,9.6-18.9,18.7
	c0.1,9.6,5.4,18.3,18.9,18.3c5.3,0,10-1.6,13.6-5.2L309.9,412.9z M265.4,387.2V407c0,5.3-1.9,9-7.3,9.4c-5.8,0.3-9.3-3-9.3-9.4
	v-19.8H241V407c0,11.4,7.8,16.7,17.1,16.4c9.3-0.3,15.2-5.9,15.2-16.4v-19.8H265.4z M201,387.2v35.4c5.8,0,12,0,17.7,0
	c7.1,0,11.8-2.6,12.9-8.3c0.8-4.1-1.1-8.6-5.6-10.3c3.4-1.6,4.7-4.3,4.7-7.2c0-6.6-5.6-9.6-12.3-9.6
	C218.4,387.2,201,387.2,201,387.2z M208.7,394.1h9.7c3,0,4.5,1.5,4.5,3.6s-1.5,3.3-4.6,3.3h-9.6V394.1z M208.7,407.5
	c3.1,0,6.5,0,9.6,0c3.5,0,5.3,1.7,5.3,4.1c0,2.5-1.7,4-5.2,4h-9.7L208.7,407.5L208.7,407.5z M164.8,422.6h25.7v-4.2h-21.3v-12h19.7
	v-4.1h-19.7v-11h20.5v-4h-24.9L164.8,422.6L164.8,422.6z M135.7,418.2h-8.5v-26.8h8.5c9,0,13.4,6.5,13.4,13
	C149.1,411.2,145.1,418.2,135.7,418.2z M122.8,387.2v35.4h12.9c12.4,0,17.8-9,17.8-18.1c0-8.7-5.8-17.3-17.8-17.3H122.8L122.8,387.2
	z M107.1,405c0,7-4.2,14.1-13.5,14.1S80,412.2,80,405c0-7.7,4.6-14.3,13.6-14.3C102.9,390.8,107.2,397.8,107.1,405z M93.7,386.6
	c-11.2,0-18,8.1-18,18.4c0,9.3,5.9,18.3,18,18.3s17.9-9,17.9-18.3C111.6,395.7,105.6,386.7,93.7,386.6z M35.3,387.2v35.4h4.3v-27
	l21.7,27h3v-35.4H60v27.1l-21.7-27.1C38.3,387.2,35.3,387.2,35.3,387.2z"/>
<path class="st1" d="M380.8,473.9h-96.5c-3.8,0-7-3.2-7-7v-26.7c0-3.8,3.2-7,7-7h96.5c3.8,0,7,3.2,7,7v26.7
	C387.8,470.8,384.7,473.9,380.8,473.9z"/>
<g class="st2">
	<path class="st3" d="M308.4,455c0.6,0.8,1,1.9,1,3.1c0,1.1-0.3,2.1-0.9,2.9c-0.6,0.8-1.4,1.5-2.5,1.9s-2.3,0.7-3.8,0.7h-9.9v-20
		h9.7c2.1,0,3.7,0.5,5,1.4c1.2,0.9,1.8,2.2,1.8,3.8c0,1-0.3,1.9-0.8,2.7c-0.5,0.8-1.3,1.3-2.3,1.7
		C306.9,453.5,307.8,454.1,308.4,455z M297.4,451.4h3.7c1,0,1.7-0.1,2.1-0.4c0.4-0.3,0.7-0.8,0.7-1.4c0-0.7-0.2-1.2-0.7-1.5
		c-0.5-0.3-1.2-0.5-2.1-0.5h-3.7V451.4z M303.8,459.1c0.4-0.3,0.7-0.8,0.7-1.6c0-0.8-0.2-1.3-0.6-1.6c-0.4-0.3-1.2-0.5-2.2-0.5h-4.2
		v4.2h4.2C302.6,459.5,303.3,459.4,303.8,459.1z"/>
	<path class="st3" d="M315.9,463.5v-19.9h14.2v4H321v3.7h8.5v4H321v4.1h9.1v4h-14.2V463.5z"/>
	<path class="st3" d="M341.7,463.5v-15.6h-5.9v-4.2h17.1v4.2H347v15.6H341.7z"/>
	<path class="st3" d="M371.6,463.5l-1.8-4.1H361l-1.8,4.1H354l9.3-19.9h4.1l9.3,19.9H371.6z M362.7,455.5h5.4l-2.7-6.3L362.7,455.5z
		"/>
</g>
</svg>
