<?xml version="1.0" encoding="utf-8"?>
<!-- Generator: Adobe Illustrator 19.0.1, SVG Export Plug-In . SVG Version: 6.00 Build 0)  -->
<svg version="1.1" id="Layer_1" xmlns="http://www.w3.org/2000/svg" xmlns:xlink="http://www.w3.org/1999/xlink" x="0px" y="0px"
	 viewBox="0 0 456.9 108.6" style="enable-background:new 0 0 456.9 108.6;" xml:space="preserve">
<style type="text/css">
	.st0{fill-rule:evenodd;clip-rule:evenodd;fill:#2181C4;}
	.st1{fill:#2181C4;}
	.st2{fill:#A0A09F;}
	.st3{fill:none;}
	.st4{fill:#FFFFFF;}
	.st5{font-family:'Raleway-Bold';}
	.st6{font-size:27.926px;}
	.st7{letter-spacing:4;}
</style>
<g>
	<path class="st0" d="M60,52.4l24.5,13.7l-1.9,12.2l-33,0v21.4h-2H30H0.6c-0.2-2.2-0.2-4.4-0.2-6.7c0-5,0.4-9.9,1.1-14.7L4,66.8
		c1.9-6.5,4.4-12.7,7.6-18.6c-14-6.1-11.4-21.6-11.4-21.6l18.2,10.2C10,28.8,4.1,18.3,1.9,6.4l8.4-1.5c1.5,7.9,4.9,15.2,9.8,21.2
		C18.7,18.3,18.8,10,20.8,2l9.5-2c-3.7,10.7-3.4,22.1,0.4,32.3c0.6,1.7,1.3,3.3,2.1,4.9c6.3,3.8,13.7,6.2,21.5,6.7
		c6.6-4.5,12.1-10.6,15.8-18l7,5c-2.3,4.3-5.1,8.2-8.3,11.7c1.2-0.3,2.4-0.6,3.5-1c4.2-1.4,8.1-3.3,11.7-5.7l5.7,4.1l1.1,1.5
		C86,44.9,80.7,47.7,75,49.6C70.2,51.2,65.2,52.1,60,52.4"/>
	<path class="st1" d="M455.1,23.4c-3.6-4.2-7.7-5.5-13.2-5.5c-7.3,0-13.9,3.7-14,10.8c-0.1,8.3,6.6,10.2,14,10.9
		c4.8,0.4,7.2,1.8,7.1,4.7c0,2.5-2.9,4.2-7.1,4.2c-3.6,0-8.1-1.5-10.8-5l-4.7,4.9c3,5,9.3,7.3,15.5,7.3c7.6-0.1,14.9-3.5,14.9-11.4
		c0-8.2-6.6-10.9-13.6-11.5c-4.5-0.4-7.6-1-7.6-4.2c0-2.4,2.8-3.9,6.3-3.9c2.8,0,6.2,0.9,8.2,3L455.1,23.4z M421.5,19.2h-9.5
		l-11.8,14.6V19.2h-7.9v35.4h7.9V39.5l13.1,15.1h9.5v-0.5l-15.6-17.7l14.3-17V19.2z M378.9,44.9c-2.1,2.1-5.9,3.4-8.7,3.4
		c-8.3,0-11.1-5.9-11.1-11c0-5.2,3.1-11.4,11.1-11.4c2.8,0,5.9,0.9,8,2.9l5-4.9c-3.6-3.6-8.1-5.5-13-5.5c-13,0-18.9,9.6-18.9,18.7
		c0.1,9.6,5.4,18.3,18.9,18.3c5.3,0,10-1.6,13.6-5.2L378.9,44.9z M334.4,19.2V39c0,5.3-1.9,9-7.3,9.4c-5.8,0.3-9.3-3-9.3-9.4V19.2
		H310V39c0,11.4,7.8,16.7,17.1,16.4c9.3-0.3,15.2-5.9,15.2-16.4V19.2H334.4z M270,19.2v35.4c5.8,0,12,0,17.7,0
		c7.1,0,11.8-2.6,12.9-8.3c0.8-4.1-1.1-8.6-5.6-10.3c3.4-1.6,4.7-4.3,4.7-7.2c0-6.6-5.6-9.6-12.3-9.6H270z M277.7,26.1h9.7
		c3,0,4.5,1.5,4.5,3.6s-1.5,3.3-4.6,3.3h-9.6V26.1z M277.7,39.5c3.1,0,6.5,0,9.6,0c3.5,0,5.3,1.7,5.3,4.1c0,2.5-1.7,4-5.2,4h-9.7
		V39.5z M233.8,54.6h25.7v-4.2h-21.3v-12h19.7v-4.1h-19.7V23.3h20.5v-4h-24.9V54.6z M204.7,50.2h-8.5V23.4h8.5c9,0,13.4,6.5,13.4,13
		C218.1,43.2,214.1,50.2,204.7,50.2z M191.8,19.2v35.4h12.9c12.4,0,17.8-9,17.8-18.1c0-8.7-5.8-17.3-17.8-17.3L191.8,19.2
		L191.8,19.2z M176.1,37c0,7-4.2,14.1-13.5,14.1S149,44.2,149,37c0-7.7,4.6-14.3,13.6-14.3C171.9,22.8,176.2,29.8,176.1,37z
		 M162.7,18.6c-11.2,0-18,8.1-18,18.4c0,9.3,5.9,18.3,18,18.3c12.1,0,17.9-9,17.9-18.3C180.6,27.7,174.6,18.7,162.7,18.6z
		 M104.3,19.2v35.4h4.3v-27l21.7,27h3V19.2H129v27.1l-21.7-27.1H104.3z"/>
	<path class="st2" d="M448.5,106.2H352c-3.8,0-7-3.2-7-7V72.5c0-3.8,3.2-7,7-7h96.5c3.8,0,7,3.2,7,7v26.7
		C455.5,103.1,452.4,106.2,448.5,106.2z"/>
	<rect x="346.1" y="74.8" class="st3" width="107" height="33.7"/>
	<text transform="matrix(1 0 0 1 357.4741 95.2132)" class="st4 st5 st6 st7">BETA</text>
</g>
</svg>
