<?xml version="1.0" encoding="utf-8"?>
<!-- Generator: Adobe Illustrator 19.0.1, SVG Export Plug-In . SVG Version: 6.00 Build 0)  -->
<svg version="1.1" id="Layer_1" xmlns="http://www.w3.org/2000/svg" xmlns:xlink="http://www.w3.org/1999/xlink" x="0px" y="0px"
	 viewBox="-49 141 512 512" style="enable-background:new -49 141 512 512;" xml:space="preserve">
<style type="text/css">
	.st0{fill:#FFFFFF;}
</style>
<path class="st0" d="M20.5,445.8c6.5,20,25.2,34.7,47.4,34.7h22.3c20.2,0,40.7,1,61.2,2.7V244c-20.5,1.7-41,2.7-61.2,2.7H67.9
	c-22.2,0-40.9,14.6-47.4,34.7c-39.4,6.7-69.5,41-69.5,82.2S-18.9,439.1,20.5,445.8z M17.8,316.4v94.5c-19.4-6.9-33.4-25.5-33.4-47.2
	C-15.6,341.8-1.7,323.3,17.8,316.4z"/>
<path class="st0" d="M67.9,513.9c-1.1,0-2.2-0.1-3.3-0.2l15.6,92c4.1,24.2,24.9,41.7,49.4,41.7c30.5,0,53.7-27.4,48.7-57.5l-12-71.8
	c-25.4-2.8-51-4.3-76.1-4.3H67.9z"/>
<path class="st0" d="M429.6,146.6c-18.4,0-33.4,14.9-33.4,33.4v367.3c0,18.4,14.9,33.4,33.4,33.4s33.4-14.9,33.4-33.4V180
	C463,161.5,448.1,146.6,429.6,146.6z"/>
<path class="st0" d="M362.8,194.3c-57.8,19.8-98.3,35.7-178.1,46.1v246.4c79.5,10.3,119.9,26.2,178.1,46.1V194.3z"/>
</svg>
