<?xml version="1.0" encoding="utf-8"?>
<!-- Generator: Adobe Illustrator 19.0.1, SVG Export Plug-In . SVG Version: 6.00 Build 0)  -->
<svg version="1.1" id="Слой_1" xmlns="http://www.w3.org/2000/svg" xmlns:xlink="http://www.w3.org/1999/xlink" x="0px" y="0px"
	 viewBox="0 0 389.4 330.7" style="enable-background:new 0 0 389.4 330.7;" xml:space="preserve">
<style type="text/css">
	.st0{fill:#FFFFFF;}
</style>
<g>
	<path class="st0" d="M26.4,260.6v63.1c0,3.8,3.1,7,7,7h48.8c3.8,0,7-3.1,7-7v-111l-35.4,35.4C46.3,255.5,36.7,259.8,26.4,260.6
		L26.4,260.6z M26.4,260.6"/>
	<path class="st0" d="M113.6,211.8v111.8c0,3.8,3.1,7,7,7h48.8c3.8,0,7-3.1,7-7v-65.8c-11.1-0.2-21.5-4.6-29.4-12.5L113.6,211.8z
		 M113.6,211.8"/>
	<path class="st0" d="M200.8,250.9v72.8c0,3.8,3.1,7,7,7h48.8c3.8,0,7-3.1,7-7V189.4l-55.9,55.9
		C205.6,247.4,203.3,249.3,200.8,250.9L200.8,250.9z M200.8,250.9"/>
	<path class="st0" d="M346.2,106.8L288,165v158.7c0,3.8,3.1,7,7,7h48.8c3.8,0,7-3.1,7-7V111.2c-1.6-1.4-2.8-2.6-3.7-3.4L346.2,106.8
		z M346.2,106.8"/>
	<path class="st0" d="M386.1,3.8c-2.3-2.5-5.8-3.8-10.3-3.8h-1.3c-22.7,1-45.4,2.2-68.1,3.2c-3,0.2-7.2,0.3-10.5,3.6
		c-1,1-1.8,2.2-2.5,3.7c-3.4,7.3,1.4,12,3.6,14.2l5.7,5.8c3.9,4,7.9,8,11.9,11.9L177.4,179.8l-61.7-61.7c-3.7-3.7-8.6-5.8-13.9-5.8
		c-5.3,0-10.2,2.1-13.8,5.8L5.8,200.2c-7.7,7.7-7.7,20.1,0,27.8l3.7,3.7c3.7,3.7,8.6,5.8,13.9,5.8c5.3,0,10.2-2.1,13.8-5.8
		l64.6-64.6l61.7,61.7c3.7,3.7,8.6,5.8,13.9,5.8c5.3,0,10.2-2.1,13.9-5.8L346.2,73.8l17.5,17.4c2.1,2.1,5,5,9.4,5
		c1.8,0,3.7-0.5,5.6-1.5c1.3-0.7,2.4-1.5,3.4-2.5c3.4-3.4,4.1-7.8,4.2-11.3c0.6-14.7,1.4-29.4,2.1-44.2l1-22.2
		C389.6,9.9,388.6,6.3,386.1,3.8L386.1,3.8z M386.1,3.8"/>
</g>
</svg>
