<?xml version="1.0" encoding="utf-8"?>
<!-- Generator: Adobe Illustrator 19.0.1, SVG Export Plug-In . SVG Version: 6.00 Build 0)  -->
<svg version="1.1" id="Слой_1" xmlns="http://www.w3.org/2000/svg" xmlns:xlink="http://www.w3.org/1999/xlink" x="0px" y="0px"
	 viewBox="0 0 396.3 369" style="enable-background:new 0 0 396.3 369;" xml:space="preserve">
<style type="text/css">
	.st0{fill:#FFFFFF;}
</style>
<g>
	<path class="st0" d="M389.7,166.8l-60.1-60.1V37.3c0-12.5-10.2-22.7-22.7-22.7c-12.5,0-22.7,10.2-22.7,22.7v24l-44.7-44.7
		c-22.1-22.1-60.6-22.1-82.6,0L6.6,166.8c-8.9,8.9-8.9,23.3,0,32.1c8.9,8.9,23.3,8.9,32.1,0L189,48.7c4.9-4.9,13.5-4.9,18.4,0
		l150.2,150.2c4.5,4.4,10.3,6.7,16.1,6.7c5.8,0,11.6-2.2,16.1-6.7C398.5,190,398.5,175.7,389.7,166.8L389.7,166.8z M389.7,166.8"/>
	<path class="st0" d="M206,91.8c-4.4-4.4-11.4-4.4-15.8,0L58.2,223.9c-2.1,2.1-3.3,4.9-3.3,7.9v96.3c0,22.6,18.3,40.9,40.9,40.9
		h65.4V267.8h73.8V369h65.4c22.6,0,40.9-18.3,40.9-40.9v-96.3c0-3-1.2-5.8-3.3-7.9L206,91.8z"/>
	<path class="st0" d="M206,91.8"/>
</g>
</svg>
