<?xml version="1.0" encoding="utf-8"?>
<!-- Generator: Adobe Illustrator 19.0.1, SVG Export Plug-In . SVG Version: 6.00 Build 0)  -->
<svg version="1.1" id="Слой_1" xmlns="http://www.w3.org/2000/svg" xmlns:xlink="http://www.w3.org/1999/xlink" x="0px" y="0px"
	 viewBox="0 0 321.7 297.4" style="enable-background:new 0 0 321.7 297.4;" xml:space="preserve">
<style type="text/css">
	.st0{fill:#FFFFFF;}
</style>
<path class="st0" d="M-416.7,285.5C-416.7,283.2-416.7,284.8-416.7,285.5L-416.7,285.5z"/>
<g>
	<path class="st0" d="M106.5,136.9c31.1,0,56.4-30.7,56.4-68.5c0-37.8-8.3-68.5-56.4-68.5C58.4,0,50.1,30.7,50.1,68.5
		C50.1,106.3,75.3,136.9,106.5,136.9z"/>
	<path class="st0" d="M185,157.3c-11-6.7-26.3-11.2-47.7-15.1c0,0-9.3,11.8-30.9,11.8c-21.6,0-30.9-11.8-30.9-11.8
		c-65.1,11.8-74.2,30.2-75.4,94.4c-0.1,5.2-0.1,5.5-0.2,4.9c0,1.1,0,3.3,0,6.9c0,0,15.7,31.6,106.5,31.6c28,0,48.9-3,64.4-7.2
		c-12.4-13.6-20-31.8-20-51.7C150.9,194.5,164.4,171.1,185,157.3z"/>
	<path class="st0" d="M246.6,147.2c-41.5,0-75.1,33.6-75.1,75.1s33.6,75.1,75.1,75.1c41.5,0,75.1-33.6,75.1-75.1
		S288.1,147.2,246.6,147.2z M304,232.1l-45.2,38.9c-2.5,2.2-5.7,3.3-8.9,3.3c-3.2,0-6.4-1.1-8.9-3.2c-2.7-2.3-4.2-5.6-4.3-9.1
		c0-3.5,1.5-6.9,4.1-9.3l0.1-0.1l20.1-17.3l-62.6,0c-7.2,0-13.1-5.6-13.1-12.5c0-6.8,5.9-12.4,13.1-12.4l62.6,0l-20.2-17.4
		c-2.7-2.3-4.3-5.7-4.3-9.2s1.5-6.8,4.3-9.2c5-4.3,12.8-4.3,17.8,0l45.2,38.9c2.8,2.3,4.4,5.7,4.4,9.2
		C308.4,226.4,306.8,229.8,304,232.1z"/>
</g>
</svg>
