<?xml version="1.0" encoding="utf-8"?>
<!-- Generator: Adobe Illustrator 19.0.1, SVG Export Plug-In . SVG Version: 6.00 Build 0)  -->
<svg version="1.1" id="Слой_1" xmlns="http://www.w3.org/2000/svg" xmlns:xlink="http://www.w3.org/1999/xlink" x="0px" y="0px"
	 viewBox="0 0 527 527" style="enable-background:new 0 0 527 527;" xml:space="preserve">
<style type="text/css">
	.st0{fill:#FFFFFF;stroke:#FFFFFF;stroke-width:15;stroke-miterlimit:10;}
</style>
<g>
	<path class="st0" d="M459.5,207.5c33.1,0,60-26.9,60-60v-80c0-33.1-26.9-60-60-60h-80c-33.1,0-60,26.9-60,60v20h-112v-20
		c0-33.1-26.9-60-60-60h-80c-33.1,0-60,26.9-60,60v80c0,33.1,26.9,60,60,60h18v112h-18c-33.1,0-60,26.9-60,60v80
		c0,33.1,26.9,60,60,60h80c33.1,0,60-26.9,60-60v-20h112v20c0,33.1,26.9,60,60,60h80c33.1,0,60-26.9,60-60v-80c0-33.1-26.9-60-60-60
		h-22v-112H459.5z M359.5,67.5c0-11,9-20,20-20h80c11,0,20,9,20,20v80c0,11-9,20-20,20h-80c-11,0-20-9-20-20v-20h40v-40h-40V67.5z
		 M67.5,167.5c-11,0-20-9-20-20v-80c0-11,9-20,20-20h80c11,0,20,9,20,20v80c0,11-9,20-20,20h-22v-40h-40v40H67.5z M167.5,459.5
		c0,11-9,20-20,20h-80c-11,0-20-9-20-20v-80c0-11,9-20,20-20h80c11,0,20,9,20,20v20h-40v40h40V459.5z M459.5,359.5c11,0,20,9,20,20
		v80c0,11-9,20-20,20h-80c-11,0-20-9-20-20v-80c0-11,9-20,20-20h18v40h40v-40H459.5z M397.5,319.5h-18c-33.1,0-60,26.9-60,60v20
		h-112v-20c0-33.1-26.9-60-60-60h-22v-112h22c33.1,0,60-26.9,60-60v-20h112v20c0,33.1,26.9,60,60,60h18V319.5z M397.5,319.5"/>
</g>
</svg>
