<?xml version="1.0" encoding="utf-8"?>
<!-- Generator: Adobe Illustrator 19.0.1, SVG Export Plug-In . SVG Version: 6.00 Build 0)  -->
<svg version="1.1" id="Слой_1" xmlns="http://www.w3.org/2000/svg" xmlns:xlink="http://www.w3.org/1999/xlink" x="0px" y="0px"
	 viewBox="0 0 320.4 297.1" style="enable-background:new 0 0 320.4 297.1;" xml:space="preserve">
<style type="text/css">
	.st0{fill:#FFFFFF;}
</style>
<g>
	<path class="st0" d="M22.7,241.5C22.7,239.2,22.6,240.8,22.7,241.5L22.7,241.5z"/>
	<path class="st0" d="M245.6,147.5c-41.3,0-74.8,33.5-74.8,74.8s33.5,74.8,74.8,74.8c41.3,0,74.8-33.5,74.8-74.8
		S287,147.5,245.6,147.5z M293.5,236h-34.2v34.2c0,5.7-5.6,12-13.6,12c-8,0-13.6-6.3-13.6-12V236h-34.2c-5.7,0-12-5.6-12-13.6
		c0-3.8,1.4-7.3,4-9.9c2.3-2.3,5.3-3.7,8-3.7c0,0,0,0,0,0H232v-34.2c0-5.7,5.6-12,13.6-12c8,0,13.6,6.3,13.6,12v34.2h34.2
		c5.7,0,12,5.6,12,13.6C305.5,230.4,299.2,236,293.5,236z"/>
	<path class="st0" d="M106.5,136.9c31.1,0,56.4-30.7,56.4-68.5c0-37.8-8.3-68.5-56.4-68.5C58.4,0,50.1,30.7,50.1,68.5
		C50.1,106.3,75.3,136.9,106.5,136.9z"/>
	<path class="st0" d="M185,157.3c-11-6.7-26.3-11.2-47.7-15.1c0,0-9.3,11.8-30.9,11.8c-21.6,0-30.9-11.8-30.9-11.8
		c-65.1,11.8-74.2,30.2-75.4,94.4c-0.1,5.2-0.1,5.5-0.2,4.9c0,1.1,0,3.3,0,6.9c0,0,15.7,31.6,106.5,31.6c28,0,48.9-3,64.4-7.2
		c-12.4-13.6-20-31.8-20-51.7C150.9,194.5,164.4,171.1,185,157.3z"/>
</g>
</svg>
